<?xml version="1.0" encoding="utf-8"?>
<!-- Generator: Adobe Illustrator 16.0.0, SVG Export Plug-In . SVG Version: 6.00 Build 0)  -->
<!DOCTYPE svg PUBLIC "-//W3C//DTD SVG 1.1//EN" "http://www.w3.org/Graphics/SVG/1.1/DTD/svg11.dtd">
<svg version="1.1" id="Layer_1" xmlns="http://www.w3.org/2000/svg" xmlns:xlink="http://www.w3.org/1999/xlink" x="0px" y="0px"
     width="600px" height="200px" viewBox="0 0 600 200" enable-background="new 0 0 600 200" xml:space="preserve">
<g>
	<circle fill="#cae6ff" cx="67.022" cy="42.765" r="12"/>
    <circle fill="#cae6ff" cx="145.381" cy="42.765" r="12"/>
    <circle fill="#cae6ff" cx="223.74" cy="42.765" r="12"/>
    <circle fill="#cae6ff" cx="302.101" cy="42.765" r="12"/>
    <circle fill="#cae6ff" cx="380.46" cy="42.765" r="12"/>
    <circle fill="#cae6ff" cx="459.178" cy="42.765" r="12"/>
    <circle fill="#cae6ff" cx="537.178" cy="42.765" r="12"/>

    <circle fill="#cae6ff" cx="67.022" cy="99.373" r="12"/>
    <circle fill="#cae6ff" cx="145.381" cy="99.373" r="12"/>
    <circle fill="#cae6ff" cx="223.74" cy="99.373" r="12"/>
    <circle fill="#cae6ff" cx="302.101" cy="99.373" r="12"/>
    <circle fill="#cae6ff" cx="380.46" cy="99.373" r="12"/>
    <circle fill="#cae6ff" cx="459.178" cy="99.373" r="12"/>
    <circle fill="#cae6ff" cx="537.178" cy="99.373" r="12"/>

    <circle fill="#cae6ff" cx="67.022" cy="155.98" r="12"/>
    <circle fill="#cae6ff" cx="145.381" cy="155.98" r="12"/>
    <circle fill="#cae6ff" cx="223.74" cy="155.98" r="12"/>
    <circle fill="#cae6ff" cx="302.101" cy="155.98" r="12"/>
    <circle fill="#cae6ff" cx="380.46" cy="155.98" r="12"/>
    <circle fill="#cae6ff" cx="459.178" cy="155.98" r="12"/>
    <circle fill="#cae6ff" cx="537.178" cy="155.98" r="12"/>
</g>
</svg>
