<?xml version="1.0" encoding="utf-8"?>
<!-- Generator: Adobe Illustrator 16.0.0, SVG Export Plug-In . SVG Version: 6.00 Build 0)  -->
<!DOCTYPE svg PUBLIC "-//W3C//DTD SVG 1.1//EN" "http://www.w3.org/Graphics/SVG/1.1/DTD/svg11.dtd">
<svg version="1.1" id="Layer_1" xmlns="http://www.w3.org/2000/svg" xmlns:xlink="http://www.w3.org/1999/xlink" x="0px" y="0px"
	 width="927.105px" height="697.371px" viewBox="-370.014 -380.13 927.105 697.371"
	 enable-background="new -370.014 -380.13 927.105 697.371" xml:space="preserve">
<g id="Page-1" opacity="0.3904">
	<g id="ZippyHR-Homepage" transform="translate(-577.000000, 0.000000)">
		<g id="Header" transform="translate(-38.000000, -152.000000)">
			<path id="Path-6" fill="#F2F3FA" d="M704.968-187c304.454-92.592,467.124-28.986,467.124,192.152
				c0,221.139-45.705,401.788-453.257,415.514c-214.5,7.221-205.951-149.678-158.239-239.701
				C632.678,44.968,481.515,89.73,439.358,51.403C401.883,17.339,400.515-94.407,704.968-187z"/>
		</g>
	</g>
</g>
<g id="Page-1_1_" opacity="0.5098">
	<g id="ZippyHR-Homepage_1_" transform="translate(0.000000, -107.000000)">
		<g id="Header_1_" transform="translate(-38.000000, -152.000000)">
			<path id="Rectangle" fill="#E2EBFB" d="M-290.718,42.429L-290.718,42.429c22.807,0,41.296,18.49,41.296,41.295l0,0
				c0,22.807-18.489,41.296-41.296,41.296l0,0c-22.806,0-41.295-18.489-41.295-41.296l0,0
				C-332.014,60.919-313.524,42.429-290.718,42.429z"/>
		</g>
	</g>
</g>
<g id="Page-1_2_" opacity="0.4">
	<g id="ZippyHR-Homepage_2_" transform="translate(-53.000000, -269.000000)">
		<g id="Header_2_" transform="translate(-38.000000, -152.000000)">
			<path id="Rectangle_1_" fill="none" stroke="#23DD94" stroke-width="6" d="M-201.627,300.027L-201.627,300.027
				c6.66,0,12.06,5.401,12.06,12.064l0,0c0,6.658-5.399,12.06-12.06,12.06l0,0c-6.66,0-12.059-5.401-12.059-12.06l0,0
				C-213.686,305.428-208.287,300.027-201.627,300.027z"/>
		</g>
	</g>
</g>
<g id="Page-1_3_" opacity="0.4992">
	<g id="ZippyHR-Homepage_3_" transform="translate(-295.000000, -687.000000)">
		<g id="Header_3_" transform="translate(-38.000000, -152.000000)">
			<path id="Rectangle_2_" fill="none" stroke="#0A71FD" stroke-width="4" d="M178.506,1130.118L178.506,1130.118
				c6.662,0,12.059,5.401,12.059,12.058l0,0c0,6.665-5.397,12.064-12.059,12.064l0,0c-6.663,0-12.059-5.399-12.059-12.064l0,0
				C166.447,1135.52,171.843,1130.118,178.506,1130.118z"/>
		</g>
	</g>
</g>
</svg>
